<mxfile host="65bd71144e">
    <diagram id="neOEXt8FIoGKvH7b6nen" name="DomainModel">
        <mxGraphModel dx="2241" dy="761" grid="1" gridSize="10" guides="1" tooltips="1" connect="1" arrows="1" fold="1" page="1" pageScale="1" pageWidth="850" pageHeight="1100" math="0" shadow="0">
            <root>
                <mxCell id="0"/>
                <mxCell id="1" parent="0"/>
                <mxCell id="72" style="rounded=0;html=1;exitX=0;exitY=0;exitDx=120;exitDy=80;exitPerimeter=0;entryX=1;entryY=0.25;entryDx=0;entryDy=0;fontSize=11;endArrow=none;endFill=0;dashed=1;" edge="1" parent="1" source="71" target="63">
                    <mxGeometry relative="1" as="geometry"/>
                </mxCell>
                <mxCell id="71" value="the airport that is the source of the private flight &quot;can&quot; be the one to handle the flight&amp;nbsp;" style="shape=note;whiteSpace=wrap;html=1;backgroundOutline=1;darkOpacity=0.05;fontSize=11;align=center;size=12;" vertex="1" parent="1">
                    <mxGeometry x="450" y="512" width="120" height="80" as="geometry"/>
                </mxCell>
                <mxCell id="73" style="rounded=0;html=1;fontSize=11;endArrow=block;endFill=0;exitX=0.5;exitY=0;exitDx=0;exitDy=0;" edge="1" parent="1" source="63" target="31">
                    <mxGeometry relative="1" as="geometry"/>
                </mxCell>
                <mxCell id="83" value="owned by" style="edgeStyle=none;rounded=0;html=1;exitX=0.5;exitY=0;exitDx=0;exitDy=0;fontSize=11;endArrow=none;endFill=0;" edge="1" parent="1" source="77" target="6">
                    <mxGeometry x="-0.1934" y="30" relative="1" as="geometry">
                        <mxPoint as="offset"/>
                    </mxGeometry>
                </mxCell>
                <mxCell id="104" style="edgeStyle=none;rounded=0;html=1;entryX=0.411;entryY=1.004;entryDx=0;entryDy=0;entryPerimeter=0;labelBackgroundColor=#ffffff;fontSize=11;endArrow=block;endFill=0;" edge="1" parent="1" source="97" target="31">
                    <mxGeometry relative="1" as="geometry"/>
                </mxCell>
                <mxCell id="103" value="handles" style="edgeStyle=none;rounded=0;html=1;exitX=1;exitY=0.25;exitDx=0;exitDy=0;entryX=0;entryY=0.286;entryDx=0;entryDy=0;entryPerimeter=0;labelBackgroundColor=none;fontSize=11;endArrow=none;endFill=0;" edge="1" parent="1" source="77" target="98">
                    <mxGeometry x="-0.0086" y="-6" relative="1" as="geometry">
                        <mxPoint as="offset"/>
                    </mxGeometry>
                </mxCell>
                <mxCell id="106" value="" style="group" vertex="1" connectable="0" parent="1">
                    <mxGeometry x="-250" y="540" width="165" height="73" as="geometry"/>
                </mxCell>
                <mxCell id="86" value="" style="group" vertex="1" connectable="0" parent="106">
                    <mxGeometry width="140" height="73" as="geometry"/>
                </mxCell>
                <mxCell id="77" value="Airline" style="swimlane;fontStyle=1;childLayout=stackLayout;horizontal=1;startSize=26;fillColor=none;horizontalStack=0;resizeParent=1;resizeParentMax=0;resizeLast=0;collapsible=1;marginBottom=0;" vertex="1" parent="86">
                    <mxGeometry y="21" width="140" height="52" as="geometry"/>
                </mxCell>
                <mxCell id="80" value="name: String" style="text;strokeColor=none;fillColor=none;align=left;verticalAlign=top;spacingLeft=4;spacingRight=4;overflow=hidden;rotatable=0;points=[[0,0.5],[1,0.5]];portConstraint=eastwest;" vertex="1" parent="77">
                    <mxGeometry y="26" width="140" height="26" as="geometry"/>
                </mxCell>
                <mxCell id="85" value="1" style="text;html=1;align=center;verticalAlign=middle;resizable=0;points=[];autosize=1;strokeColor=none;fillColor=none;fontSize=11;" vertex="1" parent="86">
                    <mxGeometry x="65" width="30" height="30" as="geometry"/>
                </mxCell>
                <mxCell id="105" value="1" style="text;html=1;align=center;verticalAlign=top;resizable=0;points=[];autosize=1;strokeColor=none;fillColor=none;fontSize=11;" vertex="1" parent="106">
                    <mxGeometry x="135" y="15" width="30" height="30" as="geometry"/>
                </mxCell>
                <mxCell id="108" value="" style="group" vertex="1" connectable="0" parent="1">
                    <mxGeometry x="30" y="540" width="170" height="52" as="geometry"/>
                </mxCell>
                <mxCell id="97" value="Non-Private" style="swimlane;fontStyle=1;childLayout=stackLayout;horizontal=1;startSize=26;fillColor=none;horizontalStack=0;resizeParent=1;resizeParentMax=0;resizeLast=0;collapsible=1;marginBottom=0;fontSize=11;" vertex="1" parent="108">
                    <mxGeometry x="30" width="140" height="52" as="geometry"/>
                </mxCell>
                <mxCell id="98" value="type: String" style="text;strokeColor=none;fillColor=none;align=left;verticalAlign=top;spacingLeft=4;spacingRight=4;overflow=hidden;rotatable=0;points=[[0,0.5],[1,0.5]];portConstraint=eastwest;fontSize=11;" vertex="1" parent="97">
                    <mxGeometry y="26" width="140" height="26" as="geometry"/>
                </mxCell>
                <mxCell id="107" value="*" style="text;html=1;align=right;verticalAlign=middle;resizable=0;points=[];autosize=1;strokeColor=none;fillColor=none;fontSize=11;" vertex="1" parent="108">
                    <mxGeometry y="11" width="30" height="30" as="geometry"/>
                </mxCell>
                <mxCell id="109" value="handles" style="edgeStyle=none;rounded=0;html=1;exitX=1;exitY=0.25;exitDx=0;exitDy=0;entryX=0;entryY=0.228;entryDx=0;entryDy=0;entryPerimeter=0;labelBackgroundColor=none;fontSize=11;endArrow=none;endFill=0;" edge="1" parent="1" source="5" target="31">
                    <mxGeometry x="0.0001" y="10" relative="1" as="geometry">
                        <mxPoint as="offset"/>
                    </mxGeometry>
                </mxCell>
                <mxCell id="110" value="" style="group" vertex="1" connectable="0" parent="1">
                    <mxGeometry x="80" y="340" width="190" height="130" as="geometry"/>
                </mxCell>
                <mxCell id="42" value="1" style="text;html=1;align=center;verticalAlign=top;resizable=0;points=[];autosize=1;strokeColor=none;fillColor=none;" vertex="1" parent="110">
                    <mxGeometry y="30" width="30" height="30" as="geometry"/>
                </mxCell>
                <mxCell id="30" value="src.Flight" style="swimlane;fontStyle=3;childLayout=stackLayout;horizontal=1;startSize=26;fillColor=none;horizontalStack=0;resizeParent=1;resizeParentMax=0;resizeLast=0;collapsible=1;marginBottom=0;" vertex="1" parent="110">
                    <mxGeometry x="20" width="170" height="130" as="geometry"/>
                </mxCell>
                <mxCell id="31" value="flightNumber: String&#10;source: Airport &#10;destination: Airport&#10;scheduledDeparture: Time&#10;scheduledArrival : Time&#10;actualDeparture: Time&#10;actualArrival: Time" style="text;strokeColor=none;fillColor=none;align=left;verticalAlign=top;spacingLeft=4;spacingRight=4;overflow=hidden;rotatable=0;points=[[0,0.5],[1,0.5]];portConstraint=eastwest;" vertex="1" parent="30">
                    <mxGeometry y="26" width="170" height="104" as="geometry"/>
                </mxCell>
                <mxCell id="87" value="1..*" style="text;html=1;align=center;verticalAlign=middle;resizable=0;points=[];autosize=1;strokeColor=none;fillColor=none;fontSize=11;" vertex="1" parent="1">
                    <mxGeometry x="-190" y="440" width="40" height="30" as="geometry"/>
                </mxCell>
                <mxCell id="111" value="" style="group" vertex="1" connectable="0" parent="1">
                    <mxGeometry x="-280" y="370" width="200" height="79.33333333333337" as="geometry"/>
                </mxCell>
                <mxCell id="62" value="" style="group" vertex="1" connectable="0" parent="111">
                    <mxGeometry width="170" height="79.33333333333337" as="geometry"/>
                </mxCell>
                <mxCell id="5" value="Aircraft" style="swimlane;fontStyle=1;childLayout=stackLayout;horizontal=1;startSize=26;fillColor=none;horizontalStack=0;resizeParent=1;resizeParentMax=0;resizeLast=0;collapsible=1;marginBottom=0;" vertex="1" parent="62">
                    <mxGeometry x="30" width="140" height="79.33333333333334" as="geometry"/>
                </mxCell>
                <mxCell id="6" value=" aircraftID: long&#10; currentLocation: String" style="text;strokeColor=none;fillColor=none;align=left;verticalAlign=top;spacingLeft=4;spacingRight=4;overflow=hidden;rotatable=0;points=[[0,0.5],[1,0.5]];portConstraint=eastwest;" vertex="1" parent="5">
                    <mxGeometry y="26" width="140" height="53.333333333333336" as="geometry"/>
                </mxCell>
                <mxCell id="40" value="1" style="text;html=1;align=left;verticalAlign=middle;resizable=0;points=[];autosize=1;strokeColor=none;fillColor=none;" vertex="1" parent="111">
                    <mxGeometry x="170" width="30" height="30" as="geometry"/>
                </mxCell>
                <mxCell id="114" style="edgeStyle=none;rounded=0;html=1;entryX=0;entryY=0.25;entryDx=0;entryDy=0;labelBackgroundColor=none;fontSize=11;endArrow=none;endFill=0;dashed=1;" edge="1" parent="1" source="113" target="5">
                    <mxGeometry relative="1" as="geometry"/>
                </mxCell>
                <mxCell id="113" value="aircraft is always either at an airport or in transit" style="shape=note;whiteSpace=wrap;html=1;backgroundOutline=1;darkOpacity=0.05;fontSize=11;size=15;" vertex="1" parent="1">
                    <mxGeometry x="-350" y="415" width="80" height="80" as="geometry"/>
                </mxCell>
                <mxCell id="125" value="located by" style="edgeStyle=none;rounded=0;html=1;exitX=1;exitY=0.5;exitDx=0;exitDy=0;entryX=0;entryY=0.5;entryDx=0;entryDy=0;labelBackgroundColor=none;fontSize=11;endArrow=none;endFill=0;" edge="1" parent="1" source="120" target="124">
                    <mxGeometry y="-7" relative="1" as="geometry">
                        <mxPoint as="offset"/>
                    </mxGeometry>
                </mxCell>
                <mxCell id="129" value="" style="group" vertex="1" connectable="0" parent="1">
                    <mxGeometry x="570" y="260" width="155" height="80" as="geometry"/>
                </mxCell>
                <mxCell id="123" value="City" style="swimlane;fontStyle=1;childLayout=stackLayout;horizontal=1;startSize=26;fillColor=none;horizontalStack=0;resizeParent=1;resizeParentMax=0;resizeLast=0;collapsible=1;marginBottom=0;fontSize=11;" vertex="1" parent="129">
                    <mxGeometry x="20" width="135" height="80" as="geometry"/>
                </mxCell>
                <mxCell id="124" value="name: String &#10;country: String&#10;temperature: double&#10;" style="text;strokeColor=none;fillColor=none;align=left;verticalAlign=top;spacingLeft=4;spacingRight=4;overflow=hidden;rotatable=0;points=[[0,0.5],[1,0.5]];portConstraint=eastwest;fontSize=11;" vertex="1" parent="123">
                    <mxGeometry y="26" width="135" height="54" as="geometry"/>
                </mxCell>
                <mxCell id="128" value="1" style="text;html=1;align=center;verticalAlign=top;resizable=0;points=[];autosize=1;strokeColor=none;fillColor=none;fontSize=11;" vertex="1" parent="129">
                    <mxGeometry y="35" width="30" height="30" as="geometry"/>
                </mxCell>
                <mxCell id="130" style="edgeStyle=orthogonalEdgeStyle;rounded=0;html=1;exitX=0;exitY=0.5;exitDx=0;exitDy=0;entryX=1;entryY=0.5;entryDx=0;entryDy=0;labelBackgroundColor=none;fontSize=11;endArrow=none;endFill=0;" edge="1" parent="1" source="120" target="31">
                    <mxGeometry relative="1" as="geometry"/>
                </mxCell>
                <mxCell id="131" value="1" style="text;html=1;align=center;verticalAlign=middle;resizable=0;points=[];autosize=1;strokeColor=none;fillColor=none;fontSize=11;" vertex="1" parent="1">
                    <mxGeometry x="265" y="394.67" width="30" height="30" as="geometry"/>
                </mxCell>
                <mxCell id="132" value="2" style="text;html=1;align=center;verticalAlign=top;resizable=0;points=[];autosize=1;strokeColor=none;fillColor=none;fontSize=11;" vertex="1" parent="1">
                    <mxGeometry x="335" y="295" width="30" height="30" as="geometry"/>
                </mxCell>
                <mxCell id="133" value="handles" style="edgeStyle=orthogonalEdgeStyle;rounded=0;html=1;exitX=0.5;exitY=1;exitDx=0;exitDy=0;entryX=1;entryY=0.75;entryDx=0;entryDy=0;labelBackgroundColor=none;fontSize=11;endArrow=none;endFill=0;" edge="1" parent="1" source="119" target="63">
                    <mxGeometry x="0.0044" y="-23" relative="1" as="geometry">
                        <mxPoint as="offset"/>
                    </mxGeometry>
                </mxCell>
                <mxCell id="151" style="edgeStyle=orthogonalEdgeStyle;rounded=0;html=1;exitX=0;exitY=0.25;exitDx=0;exitDy=0;entryX=0.5;entryY=1;entryDx=0;entryDy=0;labelBackgroundColor=none;fontSize=11;endArrow=none;endFill=0;" edge="1" parent="1" source="139" target="150">
                    <mxGeometry relative="1" as="geometry"/>
                </mxCell>
                <mxCell id="139" value="FlightsRecord" style="swimlane;fontStyle=1;childLayout=stackLayout;horizontal=1;startSize=26;fillColor=none;horizontalStack=0;resizeParent=1;resizeParentMax=0;resizeLast=0;collapsible=1;marginBottom=0;fontSize=11;" vertex="1" parent="1">
                    <mxGeometry x="115" y="260" width="140" height="52" as="geometry"/>
                </mxCell>
                <mxCell id="143" style="edgeStyle=orthogonalEdgeStyle;rounded=0;html=1;exitX=0.5;exitY=0;exitDx=0;exitDy=0;entryX=0.5;entryY=1;entryDx=0;entryDy=0;labelBackgroundColor=none;fontSize=11;endArrow=diamondThin;endFill=1;" edge="1" parent="1" source="30" target="139">
                    <mxGeometry relative="1" as="geometry"/>
                </mxCell>
                <mxCell id="161" style="edgeStyle=orthogonalEdgeStyle;rounded=0;html=1;exitX=0;exitY=0.75;exitDx=0;exitDy=0;entryX=0;entryY=0.75;entryDx=0;entryDy=0;labelBackgroundColor=none;fontSize=11;endArrow=none;endFill=0;" edge="1" parent="1" source="144" target="150">
                    <mxGeometry relative="1" as="geometry">
                        <Array as="points">
                            <mxPoint x="-380" y="709"/>
                            <mxPoint x="-380" y="199"/>
                        </Array>
                    </mxGeometry>
                </mxCell>
                <mxCell id="144" value="AirlinesRecord" style="swimlane;fontStyle=1;childLayout=stackLayout;horizontal=1;startSize=26;fillColor=none;horizontalStack=0;resizeParent=1;resizeParentMax=0;resizeLast=0;collapsible=1;marginBottom=0;fontSize=11;" vertex="1" parent="1">
                    <mxGeometry x="-250" y="670" width="140" height="52" as="geometry"/>
                </mxCell>
                <mxCell id="147" style="edgeStyle=orthogonalEdgeStyle;rounded=0;html=1;labelBackgroundColor=none;fontSize=11;endArrow=diamondThin;endFill=1;" edge="1" parent="1" source="77" target="144">
                    <mxGeometry relative="1" as="geometry"/>
                </mxCell>
                <mxCell id="149" style="edgeStyle=orthogonalEdgeStyle;rounded=0;html=1;entryX=0.5;entryY=0;entryDx=0;entryDy=0;labelBackgroundColor=none;fontSize=11;endArrow=diamondThin;endFill=1;" edge="1" parent="1" source="148" target="119">
                    <mxGeometry relative="1" as="geometry"/>
                </mxCell>
                <mxCell id="152" style="edgeStyle=orthogonalEdgeStyle;rounded=0;html=1;exitX=0.5;exitY=0;exitDx=0;exitDy=0;entryX=1;entryY=0.5;entryDx=0;entryDy=0;labelBackgroundColor=none;fontSize=11;endArrow=none;endFill=0;" edge="1" parent="1" source="148" target="150">
                    <mxGeometry relative="1" as="geometry"/>
                </mxCell>
                <mxCell id="148" value="AirportsRecord" style="swimlane;fontStyle=1;childLayout=stackLayout;horizontal=1;startSize=26;fillColor=none;horizontalStack=0;resizeParent=1;resizeParentMax=0;resizeLast=0;collapsible=1;marginBottom=0;fontSize=11;" vertex="1" parent="1">
                    <mxGeometry x="350" y="160" width="145" height="52" as="geometry"/>
                </mxCell>
                <mxCell id="150" value="System" style="swimlane;fontStyle=1;childLayout=stackLayout;horizontal=1;startSize=26;fillColor=none;horizontalStack=0;resizeParent=1;resizeParentMax=0;resizeLast=0;collapsible=1;marginBottom=0;fontSize=11;" vertex="1" parent="1">
                    <mxGeometry x="-110" y="160" width="140" height="52" as="geometry"/>
                </mxCell>
                <mxCell id="156" value="" style="group" vertex="1" connectable="0" parent="1">
                    <mxGeometry x="355" y="260" width="165" height="110" as="geometry"/>
                </mxCell>
                <mxCell id="127" value="" style="group" vertex="1" connectable="0" parent="156">
                    <mxGeometry width="165" height="80" as="geometry"/>
                </mxCell>
                <mxCell id="119" value="Airport" style="swimlane;fontStyle=1;childLayout=stackLayout;horizontal=1;startSize=26;fillColor=none;horizontalStack=0;resizeParent=1;resizeParentMax=0;resizeLast=0;collapsible=1;marginBottom=0;fontSize=11;" vertex="1" parent="127">
                    <mxGeometry width="135" height="80" as="geometry"/>
                </mxCell>
                <mxCell id="120" value="name: String &#10;airportCode: String&#10;" style="text;strokeColor=none;fillColor=none;align=left;verticalAlign=top;spacingLeft=4;spacingRight=4;overflow=hidden;rotatable=0;points=[[0,0.5],[1,0.5]];portConstraint=eastwest;fontSize=11;" vertex="1" parent="119">
                    <mxGeometry y="26" width="135" height="54" as="geometry"/>
                </mxCell>
                <mxCell id="126" value="1" style="text;html=1;align=left;verticalAlign=top;resizable=0;points=[];autosize=1;strokeColor=none;fillColor=none;fontSize=11;" vertex="1" parent="127">
                    <mxGeometry x="135" y="35" width="30" height="30" as="geometry"/>
                </mxCell>
                <mxCell id="155" value="1" style="text;html=1;align=left;verticalAlign=middle;resizable=0;points=[];autosize=1;strokeColor=none;fillColor=none;fontSize=11;" vertex="1" parent="156">
                    <mxGeometry x="55" y="80" width="30" height="30" as="geometry"/>
                </mxCell>
                <mxCell id="157" value="" style="group" vertex="1" connectable="0" parent="1">
                    <mxGeometry x="220" y="540" width="115" height="52" as="geometry"/>
                </mxCell>
                <mxCell id="63" value="Private" style="swimlane;fontStyle=1;childLayout=stackLayout;horizontal=1;startSize=26;fillColor=none;horizontalStack=0;resizeParent=1;resizeParentMax=0;resizeLast=0;collapsible=1;marginBottom=0;" vertex="1" parent="157">
                    <mxGeometry width="90" height="52" as="geometry"/>
                </mxCell>
                <mxCell id="154" value="*" style="text;html=1;align=center;verticalAlign=middle;resizable=0;points=[];autosize=1;strokeColor=none;fillColor=none;fontSize=11;" vertex="1" parent="157">
                    <mxGeometry x="85" y="15" width="30" height="30" as="geometry"/>
                </mxCell>
                <mxCell id="170" style="rounded=0;html=1;exitX=0.75;exitY=0;exitDx=0;exitDy=0;entryX=0.275;entryY=1.026;entryDx=0;entryDy=0;labelBackgroundColor=none;fontSize=11;endArrow=block;endFill=0;entryPerimeter=0;" edge="1" parent="1" source="175" target="169">
                    <mxGeometry relative="1" as="geometry">
                        <mxPoint x="190" y="800" as="sourcePoint"/>
                    </mxGeometry>
                </mxCell>
                <mxCell id="166" value="Actors" style="swimlane;fontStyle=3;childLayout=stackLayout;horizontal=1;startSize=26;fillColor=none;horizontalStack=0;resizeParent=1;resizeParentMax=0;resizeLast=0;collapsible=1;marginBottom=0;fontSize=11;" vertex="1" parent="1">
                    <mxGeometry x="195" y="690" width="140" height="52" as="geometry"/>
                </mxCell>
                <mxCell id="169" value="registered: Boolean" style="text;strokeColor=none;fillColor=none;align=left;verticalAlign=top;spacingLeft=4;spacingRight=4;overflow=hidden;rotatable=0;points=[[0,0.5],[1,0.5]];portConstraint=eastwest;fontSize=11;" vertex="1" parent="166">
                    <mxGeometry y="26" width="140" height="26" as="geometry"/>
                </mxCell>
                <mxCell id="177" style="edgeStyle=none;rounded=0;html=1;exitX=0.25;exitY=0;exitDx=0;exitDy=0;labelBackgroundColor=none;fontSize=11;endArrow=block;endFill=0;entryX=0.762;entryY=1.064;entryDx=0;entryDy=0;entryPerimeter=0;" edge="1" parent="1" source="173" target="169">
                    <mxGeometry relative="1" as="geometry"/>
                </mxCell>
                <mxCell id="189" style="edgeStyle=none;rounded=0;html=1;exitX=1;exitY=0.75;exitDx=0;exitDy=0;entryX=0;entryY=0.5;entryDx=0;entryDy=0;entryPerimeter=0;labelBackgroundColor=none;fontSize=11;endArrow=none;endFill=0;dashed=1;" edge="1" parent="1" source="173" target="188">
                    <mxGeometry relative="1" as="geometry"/>
                </mxCell>
                <mxCell id="173" value="Users" style="swimlane;fontStyle=1;childLayout=stackLayout;horizontal=1;startSize=26;fillColor=none;horizontalStack=0;resizeParent=1;resizeParentMax=0;resizeLast=0;collapsible=1;marginBottom=0;fontSize=11;" vertex="1" parent="1">
                    <mxGeometry x="300" y="800" width="115" height="52" as="geometry"/>
                </mxCell>
                <mxCell id="174" value="registered: Boolean" style="text;strokeColor=none;fillColor=none;align=left;verticalAlign=top;spacingLeft=4;spacingRight=4;overflow=hidden;rotatable=0;points=[[0,0.5],[1,0.5]];portConstraint=eastwest;fontSize=11;" vertex="1" parent="173">
                    <mxGeometry y="26" width="115" height="26" as="geometry"/>
                </mxCell>
                <mxCell id="175" value="Administrators" style="swimlane;fontStyle=3;childLayout=stackLayout;horizontal=1;startSize=26;fillColor=none;horizontalStack=0;resizeParent=1;resizeParentMax=0;resizeLast=0;collapsible=1;marginBottom=0;fontSize=11;" vertex="1" parent="1">
                    <mxGeometry x="125" y="800" width="115" height="52" as="geometry"/>
                </mxCell>
                <mxCell id="176" value="registered: True" style="text;strokeColor=none;fillColor=none;align=left;verticalAlign=top;spacingLeft=4;spacingRight=4;overflow=hidden;rotatable=0;points=[[0,0.5],[1,0.5]];portConstraint=eastwest;fontSize=11;" vertex="1" parent="175">
                    <mxGeometry y="26" width="115" height="26" as="geometry"/>
                </mxCell>
                <mxCell id="185" style="edgeStyle=none;rounded=0;html=1;exitX=0.5;exitY=0;exitDx=0;exitDy=0;labelBackgroundColor=none;fontSize=11;endArrow=block;endFill=0;" edge="1" parent="1" source="181" target="176">
                    <mxGeometry relative="1" as="geometry"/>
                </mxCell>
                <mxCell id="190" style="edgeStyle=orthogonalEdgeStyle;rounded=0;html=1;exitX=0;exitY=0.5;exitDx=0;exitDy=0;entryX=0;entryY=0.25;entryDx=0;entryDy=0;labelBackgroundColor=none;fontSize=11;endArrow=none;endFill=0;" edge="1" parent="1" source="181" target="150">
                    <mxGeometry relative="1" as="geometry">
                        <Array as="points">
                            <mxPoint x="-400" y="920"/>
                            <mxPoint x="-400" y="173"/>
                        </Array>
                    </mxGeometry>
                </mxCell>
                <mxCell id="181" value="System" style="swimlane;fontStyle=1;childLayout=stackLayout;horizontal=1;startSize=26;fillColor=none;horizontalStack=0;resizeParent=1;resizeParentMax=0;resizeLast=0;collapsible=1;marginBottom=0;fontSize=11;" vertex="1" parent="1">
                    <mxGeometry x="80" y="900" width="65" height="40" as="geometry"/>
                </mxCell>
                <mxCell id="186" style="edgeStyle=none;rounded=0;html=1;exitX=0.5;exitY=0;exitDx=0;exitDy=0;labelBackgroundColor=none;fontSize=11;endArrow=block;endFill=0;" edge="1" parent="1" source="183" target="176">
                    <mxGeometry relative="1" as="geometry"/>
                </mxCell>
                <mxCell id="191" style="edgeStyle=orthogonalEdgeStyle;rounded=0;html=1;exitX=0.5;exitY=1;exitDx=0;exitDy=0;entryX=0.799;entryY=1.014;entryDx=0;entryDy=0;entryPerimeter=0;labelBackgroundColor=none;fontSize=11;endArrow=none;endFill=0;" edge="1" parent="1" source="183" target="120">
                    <mxGeometry relative="1" as="geometry">
                        <Array as="points">
                            <mxPoint x="185" y="950"/>
                            <mxPoint x="720" y="950"/>
                            <mxPoint x="720" y="430"/>
                            <mxPoint x="463" y="430"/>
                        </Array>
                    </mxGeometry>
                </mxCell>
                <mxCell id="183" value="Airports" style="swimlane;fontStyle=1;childLayout=stackLayout;horizontal=1;startSize=26;fillColor=none;horizontalStack=0;resizeParent=1;resizeParentMax=0;resizeLast=0;collapsible=1;marginBottom=0;fontSize=11;" vertex="1" parent="1">
                    <mxGeometry x="150" y="900" width="70" height="40" as="geometry"/>
                </mxCell>
                <mxCell id="187" style="edgeStyle=none;rounded=0;html=1;exitX=0.5;exitY=0;exitDx=0;exitDy=0;labelBackgroundColor=none;fontSize=11;endArrow=block;endFill=0;" edge="1" parent="1" source="184" target="176">
                    <mxGeometry relative="1" as="geometry"/>
                </mxCell>
                <mxCell id="192" style="edgeStyle=orthogonalEdgeStyle;rounded=0;html=1;exitX=0.5;exitY=1;exitDx=0;exitDy=0;entryX=1;entryY=0.5;entryDx=0;entryDy=0;labelBackgroundColor=none;fontSize=11;endArrow=none;endFill=0;" edge="1" parent="1" source="184" target="80">
                    <mxGeometry relative="1" as="geometry">
                        <Array as="points">
                            <mxPoint x="255" y="990"/>
                            <mxPoint x="10" y="990"/>
                            <mxPoint x="10" y="600"/>
                        </Array>
                    </mxGeometry>
                </mxCell>
                <mxCell id="184" value="Airline" style="swimlane;fontStyle=1;childLayout=stackLayout;horizontal=1;startSize=26;fillColor=none;horizontalStack=0;resizeParent=1;resizeParentMax=0;resizeLast=0;collapsible=1;marginBottom=0;fontSize=11;" vertex="1" parent="1">
                    <mxGeometry x="230" y="898" width="50" height="42" as="geometry"/>
                </mxCell>
                <mxCell id="188" value="users can be registered or non registered, but idk how to organize all the types of actors since administrators are all REGISTERED, also the non/registered will have access to different info but maybe thats just different views in the implementation" style="shape=note;whiteSpace=wrap;html=1;backgroundOutline=1;darkOpacity=0.05;fontSize=11;align=center;size=12;" vertex="1" parent="1">
                    <mxGeometry x="490" y="700" width="200" height="120" as="geometry"/>
                </mxCell>
                <mxCell id="195" value="Login" style="swimlane;fontStyle=1;childLayout=stackLayout;horizontal=1;startSize=26;fillColor=none;horizontalStack=0;resizeParent=1;resizeParentMax=0;resizeLast=0;collapsible=1;marginBottom=0;fontSize=11;" vertex="1" parent="1">
                    <mxGeometry x="400" y="630" width="115" height="52" as="geometry"/>
                </mxCell>
                <mxCell id="197" style="rounded=0;html=1;exitX=1;exitY=0.25;exitDx=0;exitDy=0;entryX=0;entryY=0.75;entryDx=0;entryDy=0;labelBackgroundColor=none;fontSize=11;endArrow=none;endFill=0;" edge="1" parent="1" source="166" target="195">
                    <mxGeometry relative="1" as="geometry"/>
                </mxCell>
            </root>
        </mxGraphModel>
    </diagram>
</mxfile>